ply
format ascii 1.0
comment VCGLIB generated
element vertex 71
property double x
property double y
property double z
property double quality
element face 138
property list uchar int vertex_indices
property double quality
end_header
14.47434012895485 0.857645374927084 7.458199248730998 0.05637482696217645 
-6.940968438031211 -6.285791738319578 13.11342499332314 0.004533520862177508 
-0.355473491028053 0.8941330475719858 16.83080888075844 0.008902874840504027 
14.20786699120088 2.650017117474909 7.713267261548632 0.05245570584099783 
13.32099228695907 1.841851651476535 5.91816464641288 0.08559119048025679 
-5.415744664633181 0.2073082388180957 0.3673363469219237 0.00242532987203981 
-3.710352209902035 -1.183445887233245 8.195563769872754 0.01780888990694094 
5.334719640445832 -0.6110757232998435 1.159930261205477 0.004436864888881496 
14.45511250106095 0.3969331316792603 5.761460717981687 0.04817198359676008 
-7.336613277752273 -0.1281536452414209 18.99895921788194 0.04296287693202861 
4.430525158580691 2.456238113706861 -1.874389282826702 0.004660995803186097 
-0.6305748640291289 -0.7774229905757587 16.13467604878223 0.08965182606660992 
0.8666179099602828 -5.463597243720541 0.4423865516455485 0.005227654144266289 
3.177376399293244 5.357220117521383 6.779460397109455 0.07310109250312051 
-7.672487332455486 1.888858734261257 11.91915225657987 0.01445458899642796 
3.79912303092135 3.772983378584507 7.307159422704523 0.05476461883690997 
-3.747926828995358 0.3538983178303989 13.21173896125202 0.05134108443651725 
-4.013350416545159 -4.738339997706731 15.08685340217079 0.03406264386368952 
-4.200600065068111 -3.155699428280844 1.031711252185155 0.002669276677549794 
3.146318263144262 -1.433119729126693 4.291017922454208 0.03012639466761301 
-4.16204209174761 -3.624215655763166 8.984447705651412 0.03819948093477588 
-0.8485467704898643 -0.5689533754029444 17.77441404903405 0.1064409497212601 
3.392781525870598 1.407920137467817 8.646717006979342 0.06992282018314813 
2.767172241111179 3.545214084813063 2.812325091950382 0.01946195410742743 
6.000017788016779 2.513986243723557 11.35426137668458 0.04891237370026806 
19.17915562972037 -0.9207340865131461 0.4277738635914973 0.02115484018080262 
1.941972739146946 7.609561822537528 9.514506038404026 0.02811125231297714 
3.297327226154802 4.065355027965586 6.935099948391461 0.1101827700662254 
2.625782378093476 1.523226680378017 4.593601978793578 0.07909874266419406 
10.7118740279077 3.424395549789468 9.663732063119555 0.1283666544051849 
-4.038443574309672 0.3553169571131893 20.6795001432262 0.08336543767254276 
6.951126794375416 2.872908308594671 9.798553151470262 0.06972503507923182 
15.2811952977046 1.801247269526346 3.867754187458001 0.04721861338188983 
-2.375944808245837 -2.871523202347193 9.445276451129361 0.01487908722914084 
10.0926698435361 2.334162720904403 9.528044531159585 0.1444566682179475 
-2.980302840714257 -1.01150173640955 13.32096736213939 0.05480796772677247 
-7.224222776360689 -4.9669142932735 16.98480689796542 0.009977175024070072 
-3.093473710580497 1.248245506326701 -4.180026235967431 0.003242875983927898 
0.9803225909846964 5.533433091230846 -0.2233465000003567 0.005095834391688469 
1.206868602792756 2.548157123378529 -4.767134446401975 0.002902545157557101 
19.31525523196778 1.109158417420375 -0.03353057904282363 0.02318150121772665 
2.635079707769051 -1.823550874058667 -4.757017571153676 0.00515776820636146 
-13.74607326709339 -3.212231084368228 17.2796358092453 0.009599060173563033 
9.496439198084548 3.129965888537876 13.75888780424782 0.07121124589315954 
-4.240149635414219 3.61933954285219 -0.05866653825967222 0.005986281151079989 
-7.168855286359645 2.047754257685015 15.34999446448501 0.005148283754950394 
9.454031884303406 1.715659291055851 12.02635873094017 0.03037578796941009 
-4.822323410792182 0.3060825629984307 22.19841089752023 0.02607039999997796 
0.206399668448056 -2.966352245019231 5.533561002791622 0.02563065196531257 
7.531206038976119 4.118093905964841 10.10139015319547 0.05104343813435221 
-1.185421988798992 -0.8151334425442018 10.33438347548121 0.01886916375775975 
11.86685443042428 2.864587023331421 10.7773600222728 0.05035883284658933 
-2.323656281523161 1.695360597229161 5.515099117674823 0.02598195711601615 
0.9798267247130951 4.28837666478648 6.934185602385619 0.1070670542900166 
-5.090696212346304 0.7191505434257504 10.90749264130605 0.1379948524109431 
-2.330632153137707 -2.310108893362355 6.748627118495053 0.03418812660320296 
1.72385422304536 -1.299003802184397 8.212210116668334 0.02038632503348662 
-2.128085173732329 0.4856735686731612 9.195426327134978 0.007720491633655543 
-2.911516895137233 -0.9751970118580313 17.62868813665273 0.1089135391213343 
-0.7853892244646028 0.1686440326255044 18.02337239044599 0.1208185085540662 
1.063258275291258 3.699922379665631 3.874329198448667 0.1337556951112181 
17.85445455488966 0.8839700966913566 4.2278432640565 0.02931417570691269 
-4.068071652005713 -0.844534712260351 20.1690737568324 0.1100380024690453 
-5.71532351935659 1.200737334882241 20.14638555220417 0.08358274549804245 
-2.870555593221277 -3.763421388661973 -2.795463222257236 0.005461753479665861 
7.452472498805716 4.736944409207697 11.47593121677239 0.1063655458172154 
2.918904599716368 1.966223413664811 10.32909364450252 0.1976710548779226 
-8.994325054930137 -1.044852179761167 17.84394817915724 0.02750299217769485 
-9.279170054775397 -2.438903208019759 10.38044988936154 0.003640766647962765 
-14.43125556194986 -1.357278933260913 15.9883676107715 0.009506951159755247 
0.1999489194868936 -0.71492139903032 17.54812523411011 0.1002036933640078 
3 41 37 39 0.01664810743249168 
3 37 5 44 0.01021720270450299 
3 3 61 32 0.09034271851671827 
3 11 2 70 0.2533758444411927 
3 10 41 39 0.02114608782680094 
3 61 0 8 0.1057907810732083 
3 55 48 33 0.1020491523619539 
3 40 32 61 0.2065164200142759 
3 51 43 46 0.02972388549549598 
3 61 25 40 0.1642422876177125 
3 12 41 7 0.03140646680346137 
3 10 7 41 0.02254569790531891 
3 49 15 13 0.01934309012034774 
3 32 4 3 0.1217382007187386 
3 62 36 17 0.003432503955341337 
3 29 3 4 0.1438436166372514 
3 65 13 26 0.1473213718284179 
3 53 57 26 0.08913836155194044 
3 14 54 68 0.03227825924206174 
3 31 46 24 0.06394414388503022 
3 14 45 16 0.04618926979071414 
3 56 22 66 0.0635392572472786 
3 24 49 31 0.008284056132039197 
3 0 61 3 0.06919269982671317 
3 57 66 26 0.02890398174469477 
3 21 70 59 0.1131130176743566 
3 2 59 70 0.001670557439989895 
3 28 7 23 0.02404058788821717 
3 62 30 47 0.07879147824644617 
3 62 47 9 0.223411405936266 
3 47 30 63 0.176230947105249 
3 36 67 42 0.04323299569346362 
3 60 13 27 0.5363310757558999 
3 15 27 13 0.124796751239691 
3 51 46 0 0.04808044903903708 
3 8 25 61 0.1488113733691023 
3 10 39 38 0.01392590123302595 
3 37 41 64 0.00889098294952162 
3 46 4 8 0.445517050078037 
3 58 17 21 0.4783955045213324 
3 3 51 0 0.05951102678065057 
3 22 15 49 0.1636370396304412 
3 38 39 44 0.004015962946168239 
3 68 54 6 0.0959785681470442 
3 12 64 41 0.0004353269404837601 
3 66 24 26 0.06469988446317176 
3 70 21 11 0.2675463982701793 
3 17 36 1 0.07705888750317835 
3 5 64 18 0.02653409724037503 
3 64 12 18 0.01688361987345777 
3 12 19 48 0.01939807383634018 
3 19 12 7 0.06150657946162463 
3 2 45 63 0.009589757378141273 
3 8 32 25 0.006087684122425663 
3 25 32 40 0.03691837907852979 
3 55 33 20 0.08044134596792318 
3 20 6 55 0.1206763933614974 
3 23 7 10 0.04638805045670813 
3 43 65 24 0.05400768712777748 
3 23 38 60 0.20708476118853 
3 46 34 4 0.1486547497029774 
3 5 52 44 0.01034392249063387 
3 46 43 24 0.0006924774262219158 
3 29 4 34 0.02299100914579799 
3 65 26 24 0.007508074639076212 
3 29 51 3 0.05205572123261037 
3 45 2 16 0.006248149605068587 
3 43 51 65 0.2468784192692129 
3 56 66 50 0.07278385763521078 
3 49 13 65 0.02541098666506802 
3 1 42 68 0.004011461278588868 
3 53 26 13 0.2705826923266583 
3 48 56 33 0.03546202008055632 
3 66 22 24 0.2428561851245576 
3 33 56 50 0.01695659648243519 
3 7 28 19 0.03082308354208196 
3 29 65 51 0.0004019785037480128 
3 44 52 60 0.009230292946914243 
3 52 57 53 0.02204989557668446 
3 57 50 66 0.04191163251502095 
3 59 2 63 0.1986405977711916 
3 21 17 11 0.005132848011557112 
3 18 55 5 0.03920690949251326 
3 52 5 55 0.01730302473640866 
3 55 18 48 0.007786530807187275 
3 42 69 68 0.05777894228003799 
3 8 0 46 0.2267130431007546 
3 35 16 2 0.0549006113881757 
3 10 38 23 0.002668753259529866 
3 34 49 29 0.4033471252207015 
3 62 58 30 0.477681699180342 
3 19 22 56 0.07410019616313124 
3 59 30 21 0.7013813017566254 
3 45 9 63 0.01919422422042949 
3 14 68 69 0.03533134523726911 
3 64 5 37 0.07442775914307287 
3 37 44 39 0.03387153152033207 
3 52 6 57 0.03412805173273026 
3 6 20 68 0.01110165781868322 
3 1 68 20 0.0486392651392491 
3 28 27 15 0.5991066103761051 
3 38 44 60 0.03974102883358155 
3 59 63 30 0.1125521610819441 
3 55 6 52 0.152815074297866 
3 33 35 17 0.00287482653136617 
3 35 33 50 0.1387615575116139 
3 46 31 34 0.1338483168947348 
3 17 20 33 0.167463483551332 
3 35 11 17 0.08294851482396737 
3 19 28 22 0.1785303770699043 
3 49 24 22 0.01523984366567588 
3 17 58 62 0.07402504990849879 
3 15 22 28 0.4696430834447487 
3 13 60 53 0.01741262929196696 
3 23 60 27 0.3254558557130424 
3 36 9 67 0.06135905385208007 
3 36 62 9 0.08750044030589366 
3 14 16 54 0.1110100822005358 
3 16 35 50 0.3037910718387037 
3 19 56 48 0.008122343342415128 
3 36 42 1 0.02867025280134206 
3 54 50 57 0.4654158848816174 
3 28 23 27 0.01457776896552043 
3 45 14 69 0.05261207211763663 
3 31 49 34 0.08189839810349464 
3 54 57 6 0.06631560051746221 
3 50 54 16 0.2511196359097023 
3 45 67 9 0.05383222124276488 
3 18 12 48 0.06919845397060786 
3 53 60 52 0.1872370078248513 
3 20 17 1 0.01047517127504971 
3 65 29 49 0.09058974631267436 
3 11 35 2 0.05009509974235982 
3 58 21 30 0.03820339311331 
3 67 69 42 0.1308865677006241 
3 67 45 69 0.06726168475749095 
3 9 47 63 0.1179921928422764 
3 4 32 8 0.08837886807659601 
